<mxfile host="app.diagrams.net" agent="Mozilla/5.0 (Windows NT 10.0; Win64; x64) AppleWebKit/537.36 (KHTML, like Gecko) Chrome/130.0.0.0 Safari/537.36" version="24.8.3">
  <diagram name="Page-1" id="CxHIbIp20aGvU283qFEG">
    <mxGraphModel dx="1050" dy="522" grid="1" gridSize="10" guides="1" tooltips="1" connect="1" arrows="1" fold="1" page="1" pageScale="1" pageWidth="850" pageHeight="1100" math="0" shadow="0">
      <root>
        <mxCell id="0" />
        <mxCell id="1" parent="0" />
        <mxCell id="Le-V1Py1yV7QzQ1_DrHU-3" value="«interface»&lt;br&gt;&lt;b&gt;Factory&lt;/b&gt;" style="swimlane;fontStyle=0;childLayout=stackLayout;horizontal=1;startSize=50;fillColor=none;horizontalStack=0;resizeParent=1;resizeParentMax=0;resizeLast=0;collapsible=1;marginBottom=0;whiteSpace=wrap;html=1;" vertex="1" parent="1">
          <mxGeometry x="10" y="170" width="260" height="102" as="geometry" />
        </mxCell>
        <mxCell id="Le-V1Py1yV7QzQ1_DrHU-5" value="+ produceMilkChocolate() : MilkChocolate" style="text;strokeColor=none;fillColor=none;align=left;verticalAlign=top;spacingLeft=4;spacingRight=4;overflow=hidden;rotatable=0;points=[[0,0.5],[1,0.5]];portConstraint=eastwest;whiteSpace=wrap;html=1;" vertex="1" parent="Le-V1Py1yV7QzQ1_DrHU-3">
          <mxGeometry y="50" width="260" height="26" as="geometry" />
        </mxCell>
        <mxCell id="Le-V1Py1yV7QzQ1_DrHU-6" value="+ produceDarkChocolate(): DarkChocolate" style="text;strokeColor=none;fillColor=none;align=left;verticalAlign=top;spacingLeft=4;spacingRight=4;overflow=hidden;rotatable=0;points=[[0,0.5],[1,0.5]];portConstraint=eastwest;whiteSpace=wrap;html=1;" vertex="1" parent="Le-V1Py1yV7QzQ1_DrHU-3">
          <mxGeometry y="76" width="260" height="26" as="geometry" />
        </mxCell>
        <mxCell id="Le-V1Py1yV7QzQ1_DrHU-11" value="Marabou" style="swimlane;fontStyle=0;childLayout=stackLayout;horizontal=1;startSize=26;fillColor=none;horizontalStack=0;resizeParent=1;resizeParentMax=0;resizeLast=0;collapsible=1;marginBottom=0;whiteSpace=wrap;html=1;" vertex="1" parent="1">
          <mxGeometry x="370" y="90" width="250" height="78" as="geometry" />
        </mxCell>
        <mxCell id="Le-V1Py1yV7QzQ1_DrHU-16" value="+ produceMilkChocolate() : MilkChocolate" style="text;strokeColor=none;fillColor=none;align=left;verticalAlign=top;spacingLeft=4;spacingRight=4;overflow=hidden;rotatable=0;points=[[0,0.5],[1,0.5]];portConstraint=eastwest;whiteSpace=wrap;html=1;" vertex="1" parent="Le-V1Py1yV7QzQ1_DrHU-11">
          <mxGeometry y="26" width="250" height="26" as="geometry" />
        </mxCell>
        <mxCell id="Le-V1Py1yV7QzQ1_DrHU-17" value="+ produceDarkChocolate(): DarkChocolate" style="text;strokeColor=none;fillColor=none;align=left;verticalAlign=top;spacingLeft=4;spacingRight=4;overflow=hidden;rotatable=0;points=[[0,0.5],[1,0.5]];portConstraint=eastwest;whiteSpace=wrap;html=1;" vertex="1" parent="Le-V1Py1yV7QzQ1_DrHU-11">
          <mxGeometry y="52" width="250" height="26" as="geometry" />
        </mxCell>
        <mxCell id="Le-V1Py1yV7QzQ1_DrHU-18" value="Geisha" style="swimlane;fontStyle=0;childLayout=stackLayout;horizontal=1;startSize=26;fillColor=none;horizontalStack=0;resizeParent=1;resizeParentMax=0;resizeLast=0;collapsible=1;marginBottom=0;whiteSpace=wrap;html=1;" vertex="1" parent="1">
          <mxGeometry x="370" y="290" width="250" height="78" as="geometry" />
        </mxCell>
        <mxCell id="Le-V1Py1yV7QzQ1_DrHU-19" value="+ produceMilkChocolate() : MilkChocolate" style="text;strokeColor=none;fillColor=none;align=left;verticalAlign=top;spacingLeft=4;spacingRight=4;overflow=hidden;rotatable=0;points=[[0,0.5],[1,0.5]];portConstraint=eastwest;whiteSpace=wrap;html=1;" vertex="1" parent="Le-V1Py1yV7QzQ1_DrHU-18">
          <mxGeometry y="26" width="250" height="26" as="geometry" />
        </mxCell>
        <mxCell id="Le-V1Py1yV7QzQ1_DrHU-20" value="+ produceDarkChocolate(): DarkChocolate" style="text;strokeColor=none;fillColor=none;align=left;verticalAlign=top;spacingLeft=4;spacingRight=4;overflow=hidden;rotatable=0;points=[[0,0.5],[1,0.5]];portConstraint=eastwest;whiteSpace=wrap;html=1;" vertex="1" parent="Le-V1Py1yV7QzQ1_DrHU-18">
          <mxGeometry y="52" width="250" height="26" as="geometry" />
        </mxCell>
        <mxCell id="Le-V1Py1yV7QzQ1_DrHU-21" value="" style="endArrow=block;dashed=1;endFill=0;endSize=12;html=1;rounded=0;exitX=0;exitY=0.5;exitDx=0;exitDy=0;entryX=1;entryY=0.25;entryDx=0;entryDy=0;" edge="1" parent="1" source="Le-V1Py1yV7QzQ1_DrHU-16" target="Le-V1Py1yV7QzQ1_DrHU-3">
          <mxGeometry width="160" relative="1" as="geometry">
            <mxPoint x="310" y="270" as="sourcePoint" />
            <mxPoint x="470" y="270" as="targetPoint" />
          </mxGeometry>
        </mxCell>
        <mxCell id="Le-V1Py1yV7QzQ1_DrHU-22" value="" style="endArrow=block;dashed=1;endFill=0;endSize=12;html=1;rounded=0;exitX=0;exitY=0.5;exitDx=0;exitDy=0;entryX=1;entryY=0.5;entryDx=0;entryDy=0;" edge="1" parent="1" source="Le-V1Py1yV7QzQ1_DrHU-19" target="Le-V1Py1yV7QzQ1_DrHU-6">
          <mxGeometry width="160" relative="1" as="geometry">
            <mxPoint x="310" y="270" as="sourcePoint" />
            <mxPoint x="470" y="270" as="targetPoint" />
          </mxGeometry>
        </mxCell>
        <mxCell id="Le-V1Py1yV7QzQ1_DrHU-350" style="edgeStyle=orthogonalEdgeStyle;rounded=0;orthogonalLoop=1;jettySize=auto;html=1;exitX=1;exitY=0.5;exitDx=0;exitDy=0;entryX=0;entryY=0.25;entryDx=0;entryDy=0;dashed=1;endArrow=block;endFill=0;" edge="1" parent="1" source="Le-V1Py1yV7QzQ1_DrHU-23" target="Le-V1Py1yV7QzQ1_DrHU-343">
          <mxGeometry relative="1" as="geometry" />
        </mxCell>
        <mxCell id="Le-V1Py1yV7QzQ1_DrHU-23" value="MMilkChocolate" style="html=1;whiteSpace=wrap;" vertex="1" parent="1">
          <mxGeometry x="670" y="60" width="110" height="50" as="geometry" />
        </mxCell>
        <mxCell id="Le-V1Py1yV7QzQ1_DrHU-351" style="edgeStyle=orthogonalEdgeStyle;rounded=0;orthogonalLoop=1;jettySize=auto;html=1;exitX=1;exitY=0.75;exitDx=0;exitDy=0;entryX=0;entryY=0.5;entryDx=0;entryDy=0;dashed=1;strokeColor=default;align=center;verticalAlign=middle;fontFamily=Helvetica;fontSize=11;fontColor=default;labelBackgroundColor=default;endArrow=block;endFill=0;" edge="1" parent="1" source="Le-V1Py1yV7QzQ1_DrHU-24" target="Le-V1Py1yV7QzQ1_DrHU-343">
          <mxGeometry relative="1" as="geometry" />
        </mxCell>
        <mxCell id="Le-V1Py1yV7QzQ1_DrHU-24" value="MDarkChocolate" style="html=1;whiteSpace=wrap;" vertex="1" parent="1">
          <mxGeometry x="670" y="130" width="110" height="50" as="geometry" />
        </mxCell>
        <mxCell id="Le-V1Py1yV7QzQ1_DrHU-352" style="edgeStyle=orthogonalEdgeStyle;rounded=0;orthogonalLoop=1;jettySize=auto;html=1;exitX=1;exitY=0.25;exitDx=0;exitDy=0;entryX=0.25;entryY=1;entryDx=0;entryDy=0;dashed=1;strokeColor=default;align=center;verticalAlign=middle;fontFamily=Helvetica;fontSize=11;fontColor=default;labelBackgroundColor=default;endArrow=block;endFill=0;" edge="1" parent="1" source="Le-V1Py1yV7QzQ1_DrHU-25" target="Le-V1Py1yV7QzQ1_DrHU-343">
          <mxGeometry relative="1" as="geometry" />
        </mxCell>
        <mxCell id="Le-V1Py1yV7QzQ1_DrHU-25" value="GMilkChocolate" style="html=1;whiteSpace=wrap;" vertex="1" parent="1">
          <mxGeometry x="670" y="272" width="110" height="50" as="geometry" />
        </mxCell>
        <mxCell id="Le-V1Py1yV7QzQ1_DrHU-353" style="edgeStyle=orthogonalEdgeStyle;rounded=0;orthogonalLoop=1;jettySize=auto;html=1;exitX=1;exitY=0.5;exitDx=0;exitDy=0;entryX=0.75;entryY=1;entryDx=0;entryDy=0;dashed=1;strokeColor=default;align=center;verticalAlign=middle;fontFamily=Helvetica;fontSize=11;fontColor=default;labelBackgroundColor=default;endArrow=block;endFill=0;" edge="1" parent="1" source="Le-V1Py1yV7QzQ1_DrHU-26" target="Le-V1Py1yV7QzQ1_DrHU-343">
          <mxGeometry relative="1" as="geometry" />
        </mxCell>
        <mxCell id="Le-V1Py1yV7QzQ1_DrHU-26" value="GDarkChocolate" style="html=1;whiteSpace=wrap;" vertex="1" parent="1">
          <mxGeometry x="670" y="342" width="110" height="50" as="geometry" />
        </mxCell>
        <mxCell id="Le-V1Py1yV7QzQ1_DrHU-343" value="«interface»&lt;br&gt;&lt;b&gt;Chocolate&lt;/b&gt;" style="html=1;whiteSpace=wrap;" vertex="1" parent="1">
          <mxGeometry x="840" y="196" width="110" height="50" as="geometry" />
        </mxCell>
        <mxCell id="Le-V1Py1yV7QzQ1_DrHU-345" style="edgeStyle=orthogonalEdgeStyle;rounded=0;orthogonalLoop=1;jettySize=auto;html=1;exitX=1;exitY=0.5;exitDx=0;exitDy=0;entryX=0;entryY=0.75;entryDx=0;entryDy=0;" edge="1" parent="1" source="Le-V1Py1yV7QzQ1_DrHU-17" target="Le-V1Py1yV7QzQ1_DrHU-24">
          <mxGeometry relative="1" as="geometry" />
        </mxCell>
        <mxCell id="Le-V1Py1yV7QzQ1_DrHU-346" style="edgeStyle=orthogonalEdgeStyle;rounded=0;orthogonalLoop=1;jettySize=auto;html=1;exitX=1;exitY=0.5;exitDx=0;exitDy=0;entryX=0;entryY=0.5;entryDx=0;entryDy=0;" edge="1" parent="1" source="Le-V1Py1yV7QzQ1_DrHU-16" target="Le-V1Py1yV7QzQ1_DrHU-23">
          <mxGeometry relative="1" as="geometry" />
        </mxCell>
        <mxCell id="Le-V1Py1yV7QzQ1_DrHU-347" style="edgeStyle=orthogonalEdgeStyle;rounded=0;orthogonalLoop=1;jettySize=auto;html=1;exitX=1;exitY=0.5;exitDx=0;exitDy=0;entryX=0;entryY=0.5;entryDx=0;entryDy=0;" edge="1" parent="1" source="Le-V1Py1yV7QzQ1_DrHU-19" target="Le-V1Py1yV7QzQ1_DrHU-25">
          <mxGeometry relative="1" as="geometry" />
        </mxCell>
        <mxCell id="Le-V1Py1yV7QzQ1_DrHU-348" style="edgeStyle=orthogonalEdgeStyle;rounded=0;orthogonalLoop=1;jettySize=auto;html=1;exitX=1;exitY=0.5;exitDx=0;exitDy=0;entryX=0;entryY=0.75;entryDx=0;entryDy=0;" edge="1" parent="1" source="Le-V1Py1yV7QzQ1_DrHU-20" target="Le-V1Py1yV7QzQ1_DrHU-26">
          <mxGeometry relative="1" as="geometry" />
        </mxCell>
      </root>
    </mxGraphModel>
  </diagram>
</mxfile>
